<svg xmlns="http://www.w3.org/2000/svg" xmlns:xlink="http://www.w3.org/1999/xlink" viewBox="0 0 576.31 320"><defs><style>.cls-1,.cls-4{fill:none;}.cls-2{clip-path:url(#clip-path);}.cls-3{fill:#fff;}.cls-4{stroke:#231f20;stroke-miterlimit:10;stroke-width:7.13px;}.cls-5{fill:#6aa760;}.cls-6{fill:#b1d9a6;}.cls-7{fill:#de71ac;}</style><clipPath id="clip-path" transform="translate(0 0)"><rect class="cls-1" width="576.31" height="319.99"/></clipPath></defs><g id="Layer_2" data-name="Layer 2"><g id="Layer_1-2" data-name="Layer 1"><g id="Artwork_3" data-name="Artwork 3"><g class="cls-2"><g class="cls-2"><path class="cls-3" d="M445.9,158.77c-44.09,10.6-98.65,16.86-157.74,16.86s-113.66-6.26-157.75-16.84A707.53,707.53,0,0,1,206,148h0c26-2.37,53.56-3.63,82.12-3.63s56.12,1.26,82.13,3.63h0a710.62,710.62,0,0,1,75.6,10.77" transform="translate(0 0)"/><path class="cls-4" d="M445.9,158.77c-44.09,10.6-98.65,16.86-157.74,16.86s-113.66-6.26-157.75-16.84A707.53,707.53,0,0,1,206,148h0c26-2.37,53.56-3.63,82.12-3.63s56.12,1.26,82.13,3.63h0A710.62,710.62,0,0,1,445.9,158.77Z" transform="translate(0 0)"/><path class="cls-5" d="M553.51,89.6c0,28.35-42.33,53.51-107.61,69.17-44.09,10.6-98.65,16.86-157.74,16.86s-113.66-6.26-157.75-16.84C65.13,143.11,22.8,118,22.8,89.6c0-47.52,118.81-86,265.36-86s265.35,38.51,265.35,86" transform="translate(0 0)"/><path class="cls-4" d="M553.51,89.6c0,28.35-42.33,53.51-107.61,69.17-44.09,10.6-98.65,16.86-157.74,16.86s-113.66-6.26-157.75-16.84C65.13,143.11,22.8,118,22.8,89.6c0-47.52,118.81-86,265.36-86S553.51,42.08,553.51,89.6Z" transform="translate(0 0)"/><path d="M530.1,89.6c0,34.28-108.32,62.07-241.94,62.07S46.22,123.88,46.22,89.6,154.54,27.52,288.16,27.52,530.1,55.31,530.1,89.6" transform="translate(0 0)"/><ellipse class="cls-4" cx="288.16" cy="89.6" rx="241.94" ry="62.07"/><path class="cls-6" d="M572.75,230.4c0,47.51-127.41,86-284.59,86S3.57,277.91,3.57,230.4l1-7.16L22.8,89.6c0,28.35,42.33,53.51,107.61,69.19,44.09,10.58,98.67,16.84,157.75,16.84s113.65-6.26,157.74-16.86C511.18,143.11,553.51,118,553.51,89.6l18.26,133.64Z" transform="translate(0 0)"/><path class="cls-4" d="M572.75,230.4c0,47.51-127.41,86-284.59,86S3.57,277.91,3.57,230.4l1-7.16L22.8,89.6c0,28.35,42.33,53.51,107.61,69.19,44.09,10.58,98.67,16.84,157.75,16.84s113.65-6.26,157.74-16.86C511.18,143.11,553.51,118,553.51,89.6l18.26,133.64Z" transform="translate(0 0)"/><polygon class="cls-7" points="336.31 231.99 336.31 259.66 301.3 259.66 301.3 293.98 275.01 293.98 275.01 259.66 240 259.66 240 231.99 275.01 231.99 275.01 197.67 301.3 197.67 301.3 231.99 336.31 231.99"/><polygon class="cls-4" points="336.31 231.99 336.31 259.66 301.3 259.66 301.3 293.98 275.01 293.98 275.01 259.66 240 259.66 240 231.99 275.01 231.99 275.01 197.67 301.3 197.67 301.3 231.99 336.31 231.99"/></g></g></g></g></g></svg>