<svg xmlns="http://www.w3.org/2000/svg" viewBox="0 0 927.5 770.97"><defs><style>.cls-1,.cls-2{fill:#fff;}.cls-2,.cls-3,.cls-4,.cls-5,.cls-6{stroke:#231f20;stroke-miterlimit:10;stroke-width:8px;}.cls-3{fill:#6aa760;}.cls-5{fill:#b1d9a6;}.cls-6{fill:#de71ac;}</style></defs><g id="Layer_2" data-name="Layer 2"><g id="Layer_1-2" data-name="Layer 1"><path class="cls-1" d="M164.15,781l6.45-.65c4.3-.64,5.16-1.72,5.16-6.88V680.35l-11.39-.86V658.42H274.44v37.2l-27.09,1.71v-8.59c0-4.09-1.29-6-5.59-6h-29V718.4h51.17v26H212.74v35l16.77.86v21.07H164.15Z" transform="translate(-29.14 -33.22)"/><path class="cls-1" d="M345.61,804.19c-40.2,0-64.07-25.16-64.07-74,0-55,34.83-74.6,67.08-74.6,33.76,0,62.78,20,62.78,74.6C411.4,779.25,385.6,804.19,345.61,804.19Zm1.72-30.75c21.29,0,26.23-20.85,26.23-42.56,0-18.07-3.65-44.08-27.09-44.08-20.85,0-27.09,20.42-27.09,41.92C319.38,748.72,322.82,773.44,347.33,773.44Z" transform="translate(-29.14 -33.22)"/><path class="cls-1" d="M490.09,804.19c-40.2,0-64.07-25.16-64.07-74,0-55,34.83-74.6,67.08-74.6,33.75,0,62.78,20,62.78,74.6C555.88,779.25,530.08,804.19,490.09,804.19Zm1.72-30.75c21.28,0,26.23-20.85,26.23-42.56,0-18.07-3.66-44.08-27.09-44.08-20.85,0-27.09,20.42-27.09,41.92C463.86,748.72,467.3,773.44,491.81,773.44Z" transform="translate(-29.14 -33.22)"/><path class="cls-1" d="M569.64,781l6.45-.65c3.66-.43,5.16-1.5,5.16-5.8V680.35l-11.39-.86V658.42h61.48c42.79,0,70.09,21.07,70.09,66.65,0,55.9-33.32,76.32-69.22,76.32H569.64Zm48.59-5.59h12c21.71,0,34-12.9,34-46.87,0-37.84-15.91-44.72-34-44.72h-12Z" transform="translate(-29.14 -33.22)"/><path class="cls-1" d="M782.06,760.76c0-10.11-8.39-13.76-21.5-17.2-18.71-4.95-40.85-14-40.85-42.78,0-28.6,21.71-44.94,53.32-44.94,17.2,0,32.89,3.66,43,8.6v35l-27.09,1.72V690.46c0-3-.22-4.73-3-5.59a48.68,48.68,0,0,0-12-1.29c-8.39,0-15.91,3.44-15.91,12.9,0,10.1,8.6,13.32,22.79,17.84,19.56,6.23,40.42,13.11,40.42,42.57,0,29.88-21.5,47.3-56.12,47.3-14.62,0-32.46-2.37-46.44-8.6V758.82l27.74-1.72v12c0,3.23.21,5,3,5.81a52.32,52.32,0,0,0,13.11,1.5C772.81,776.45,782.06,772.58,782.06,760.76Z" transform="translate(-29.14 -33.22)"/><path class="cls-1" d="M100.51,61.81C79,61.81,67,76.43,67,106.32c0,26.23,9.24,46.65,34.4,46.65,3.86,0,8.38-.21,11.6-1.29,2.8-.64,3.66-2.36,3.66-5.8v-14l27.09,1.72V173c-11.61,6-27.31,8.81-44.51,8.81-44.5,0-70.08-25.15-70.08-73.1,0-56.54,34.82-75.46,69.22-75.46,16.77,0,34,3.65,44.72,9V80.09L116,81.81V69.12c0-3.22-.21-4.94-3-5.8A52.92,52.92,0,0,0,100.51,61.81Z" transform="translate(-29.14 -33.22)"/><path class="cls-1" d="M155.56,179V158.56l5.59-.64c4.3-.43,5.8-2.58,7.09-6.24L199,58.16l-11.4-1.08V36h59.55L289.5,156.84,300,157.92V179H239.19V158.56l6.66-.64c4.09-.43,4.3-3,3.23-6.24l-3-9.24h-40.2l-5,14.83,10.75.65V179Zm54.82-59.77h31.17L226.72,68.91h-1.08Z" transform="translate(-29.14 -33.22)"/><path class="cls-1" d="M331.21,60.31H319c-4.3,0-5.37,2.15-5.37,5.8V79.87l-27.09-1.72V36H412.05V78.15L385,79.87V66.33c0-4.09-1.29-6-5.59-6H368.19v96.75l15.26.86V179H315.73V158.56l9.89-.86c4.51-.21,5.59-1.72,5.59-6.88Z" transform="translate(-29.14 -33.22)"/><path class="cls-1" d="M527.28,138.35c0-10.1-8.38-13.76-21.5-17.2-18.7-4.94-40.85-14-40.85-42.78,0-28.6,21.72-44.94,53.32-44.94,17.2,0,32.9,3.66,43,8.6V77.08L534.16,78.8V68.05c0-3-.21-4.73-3-5.59a49.16,49.16,0,0,0-12-1.29c-8.38,0-15.91,3.44-15.91,12.9,0,10.1,8.6,13.33,22.79,17.84,19.57,6.24,40.42,13.12,40.42,42.57,0,29.89-21.5,47.3-56.11,47.3-14.62,0-32.47-2.36-46.44-8.6V136.42l27.73-1.72v12c0,3.22.22,4.94,3,5.8a52.35,52.35,0,0,0,13.12,1.51C518,154.05,527.28,150.18,527.28,138.35Z" transform="translate(-29.14 -33.22)"/><path class="cls-1" d="M574.15,179V158.56l5.59-.64c4.3-.43,5.81-2.58,7.1-6.24l30.74-93.52-11.39-1.08V36h59.55l42.35,120.83,10.54,1.08V179H657.79V158.56l6.66-.64c4.09-.43,4.3-3,3.23-6.24l-3-9.24H624.46l-4.94,14.83,10.75.65V179ZM629,119.22h31.17L645.32,68.91h-1.08Z" transform="translate(-29.14 -33.22)"/><path class="cls-1" d="M726.8,158.56l6.45-.64c4.3-.65,5.16-1.72,5.16-6.88V57.94L727,57.08V36H837.09v37.2L810,74.93v-8.6c0-4.09-1.29-6-5.59-6h-29V96h51.17v26H775.39v35.05l16.77.86V179H726.8Z" transform="translate(-29.14 -33.22)"/><path class="cls-1" d="M848.49,158.56l6.66-.86c4.3-.64,5-1.72,5-6.88V57.94l-11.4-.86V36H954.05v37.2L927,74.93V66.11c0-4.3-1.72-5.8-5.37-5.8H897.08V92.77h48.37v25.8H897.08v36.12h27.09c3.65,0,5.37-1.29,5.37-5.8V138.14l27.09,1.93V179H848.49Z" transform="translate(-29.14 -33.22)"/><path class="cls-2" d="M669.77,419.66c-49.44,11.87-110.62,18.9-176.88,18.9s-127.45-7-176.89-18.89a792.92,792.92,0,0,1,84.79-12.09h0c29.16-2.66,60.07-4.08,92.09-4.08s62.93,1.42,92.09,4.08h0A792.81,792.81,0,0,1,669.77,419.66Z" transform="translate(-29.14 -33.22)"/><path class="cls-3" d="M790.44,342.09c0,31.79-47.47,60-120.67,77.57-49.44,11.87-110.62,18.9-176.88,18.9s-127.45-7-176.89-18.89c-73.2-17.58-120.67-45.79-120.67-77.58,0-53.29,133.23-96.47,297.56-96.47S790.44,288.8,790.44,342.09Z" transform="translate(-29.14 -33.22)"/><ellipse class="cls-4" cx="463.75" cy="308.87" rx="271.29" ry="69.6"/><path class="cls-5" d="M812,500c0,53.27-142.86,96.47-319.11,96.47S173.77,553.24,173.77,500l1.09-8,20.47-149.85c0,31.79,47.47,60,120.67,77.58,49.44,11.86,110.64,18.89,176.89,18.89s127.44-7,176.88-18.9c73.2-17.57,120.67-45.78,120.67-77.57l20.47,149.85Z" transform="translate(-29.14 -33.22)"/><polygon class="cls-6" points="517.75 468.54 517.75 499.57 478.49 499.57 478.49 538.05 449.01 538.05 449.01 499.57 409.75 499.57 409.75 468.54 449.01 468.54 449.01 430.05 478.49 430.05 478.49 468.54 517.75 468.54"/></g></g></svg>