<svg xmlns="http://www.w3.org/2000/svg" xmlns:xlink="http://www.w3.org/1999/xlink" viewBox="0 0 1210.06 96.95"><defs><style>.cls-1,.cls-4{fill:none;}.cls-2{fill:#fff;}.cls-3{clip-path:url(#clip-path);}.cls-4{stroke:#231f20;stroke-miterlimit:10;stroke-width:2.16px;}.cls-5{fill:#6aa760;}.cls-6{fill:#b1d9a6;}.cls-7{fill:#de71ac;}</style><clipPath id="clip-path" transform="translate(0 -14.25)"><rect class="cls-1" y="14.25" width="174.6" height="96.95"/></clipPath></defs><g id="Layer_2" data-name="Layer 2"><g id="Layer_1-2" data-name="Layer 1"><path class="cls-2" d="M255.61,37.66c-13.1,0-20.44,8.91-20.44,27.12,0,16,5.64,28.43,21,28.43a24.65,24.65,0,0,0,7.08-.79c1.7-.39,2.22-1.44,2.22-3.54V80.37l16.51,1v24c-7.08,3.67-16.64,5.37-27.12,5.37-27.11,0-42.7-15.33-42.7-44.54,0-34.45,21.22-46,42.18-46,10.22,0,20.7,2.23,27.25,5.5V48.8L265,49.85V42.12c0-2-.13-3-1.83-3.54A32.22,32.22,0,0,0,255.61,37.66Z" transform="translate(0 -14.25)"/><path class="cls-2" d="M289.15,109.06V96.61l3.4-.39c2.62-.26,3.54-1.57,4.32-3.8l18.74-57-6.95-.66V21.94H345l25.81,73.62,6.41.66v12.84H340.1V96.61l4.06-.39c2.49-.26,2.62-1.84,2-3.8l-1.84-5.63H319.8l-3,9,6.55.39v12.84Zm33.4-36.42h19L332.5,42h-.65Z" transform="translate(0 -14.25)"/><path class="cls-2" d="M396.17,36.75H388.7c-2.62,0-3.27,1.31-3.27,3.53v8.39l-16.51-1.05V21.94h76.5V47.62l-16.5,1.05V40.41c0-2.49-.79-3.66-3.41-3.66H418.7V95.69l9.3.53v12.84H386.74V96.61l6-.52c2.76-.13,3.41-1,3.41-4.19Z" transform="translate(0 -14.25)"/><path class="cls-2" d="M515.64,84.3c0-6.16-5.11-8.39-13.1-10.48-11.4-3-24.89-8.52-24.89-26.07s13.23-27.38,32.49-27.38c10.48,0,20,2.23,26.2,5.24V47l-16.51,1V41.46c0-1.83-.13-2.88-1.83-3.4a29.72,29.72,0,0,0-7.34-.79c-5.11,0-9.69,2.1-9.69,7.86,0,6.16,5.24,8.12,13.88,10.87,11.92,3.8,24.63,8,24.63,25.94,0,18.21-13.1,28.82-34.19,28.82-8.91,0-19.78-1.44-28.3-5.24V83.12l16.9-1.05v7.34c0,2,.13,3,1.84,3.53a31.52,31.52,0,0,0,8,.92C510,93.86,515.64,91.5,515.64,84.3Z" transform="translate(0 -14.25)"/><path class="cls-2" d="M544.2,109.06V96.61l3.4-.39c2.62-.26,3.54-1.57,4.33-3.8l18.73-57-6.94-.66V21.94H600l25.81,73.62,6.42.66v12.84H595.15V96.61l4.07-.39c2.48-.26,2.62-1.84,2-3.8l-1.83-5.63h-24.5l-3,9,6.55.39v12.84Zm33.4-36.42h19l-9-30.65h-.66Z" transform="translate(0 -14.25)"/><path class="cls-2" d="M637.2,96.61l3.94-.39c2.62-.39,3.14-1,3.14-4.19V35.3l-6.94-.52V21.94h67.07V44.61l-16.51,1V40.41c0-2.49-.79-3.66-3.41-3.66H666.81V58.49H698V74.34H666.81V95.69l10.22.53v12.84H637.2Z" transform="translate(0 -14.25)"/><path class="cls-2" d="M711.35,96.61l4.06-.52c2.62-.4,3-1,3-4.19V35.3l-6.95-.52V21.94h64.19V44.61l-16.5,1V40.28c0-2.62-1-3.53-3.28-3.53H741V56.53h29.47V72.25H741v22h16.5c2.23,0,3.28-.78,3.28-3.53V84.17l16.5,1.18v23.71H711.35Z" transform="translate(0 -14.25)"/><path class="cls-2" d="M809.73,96.61l3.93-.39c2.62-.39,3.14-1,3.14-4.19V35.3l-6.94-.52V21.94h67.07V44.61l-16.5,1V40.41c0-2.49-.79-3.66-3.41-3.66H839.33V58.49h31.18V74.34H839.33V95.69l10.22.53v12.84H809.73Z" transform="translate(0 -14.25)"/><path class="cls-2" d="M920.29,110.76c-24.49,0-39-15.33-39-45.06,0-33.54,21.22-45.46,40.87-45.46,20.56,0,38.25,12.18,38.25,45.46C960.38,95.56,944.66,110.76,920.29,110.76ZM921.34,92c13,0,16-12.71,16-25.94,0-11-2.22-26.86-16.5-26.86-12.71,0-16.51,12.45-16.51,25.55C904.31,77,906.41,92,921.34,92Z" transform="translate(0 -14.25)"/><path class="cls-2" d="M1008.32,110.76c-24.49,0-39-15.33-39-45.06,0-33.54,21.22-45.46,40.87-45.46,20.57,0,38.25,12.18,38.25,45.46C1048.41,95.56,1032.69,110.76,1008.32,110.76Zm1-18.73c13,0,16-12.71,16-25.94,0-11-2.22-26.86-16.5-26.86-12.71,0-16.51,12.45-16.51,25.55C992.34,77,994.44,92,1009.37,92Z" transform="translate(0 -14.25)"/><path class="cls-2" d="M1056.79,96.61l3.93-.39c2.23-.26,3.15-.92,3.15-3.54V35.3l-6.94-.52V21.94h37.46c26.07,0,42.71,12.84,42.71,40.61,0,34.06-20.31,46.51-42.19,46.51h-38.12Zm29.61-3.4h7.34c13.23,0,20.69-7.86,20.69-28.56,0-23.06-9.69-27.25-20.69-27.25h-7.34Z" transform="translate(0 -14.25)"/><path class="cls-2" d="M1186.22,84.3c0-6.16-5.11-8.39-13.1-10.48-11.4-3-24.89-8.52-24.89-26.07s13.23-27.38,32.49-27.38c10.48,0,20,2.23,26.2,5.24V47l-16.51,1V41.46c0-1.83-.13-2.88-1.83-3.4a29.72,29.72,0,0,0-7.34-.79c-5.11,0-9.69,2.1-9.69,7.86,0,6.16,5.24,8.12,13.88,10.87,11.92,3.8,24.63,8,24.63,25.94,0,18.21-13.1,28.82-34.19,28.82-8.91,0-19.78-1.44-28.29-5.24V83.12l16.89-1.05v7.34c0,2,.13,3,1.84,3.53a31.52,31.52,0,0,0,8,.92C1180.59,93.86,1186.22,91.5,1186.22,84.3Z" transform="translate(0 -14.25)"/><g id="Artwork_3" data-name="Artwork 3"><g class="cls-3"><g class="cls-3"><path class="cls-2" d="M135.09,62.36c-13.35,3.21-29.89,5.1-47.79,5.1s-34.43-1.89-47.79-5.1a215.32,215.32,0,0,1,22.91-3.27h0C70.3,58.38,78.65,58,87.3,58s17,.39,24.89,1.1h0a215.11,215.11,0,0,1,22.9,3.27" transform="translate(0 -14.25)"/><path class="cls-4" d="M135.09,62.36c-13.35,3.21-29.89,5.1-47.79,5.1s-34.43-1.89-47.79-5.1a215.32,215.32,0,0,1,22.91-3.27h0C70.3,58.38,78.65,58,87.3,58s17,.39,24.89,1.1h0A215.11,215.11,0,0,1,135.09,62.36Z" transform="translate(0 -14.25)"/><path class="cls-5" d="M167.7,41.4c0,8.59-12.83,16.21-32.61,21-13.35,3.21-29.89,5.1-47.79,5.1s-34.43-1.89-47.79-5.1C19.73,57.61,6.91,50,6.91,41.4c0-14.4,36-26.07,80.39-26.07S167.7,27,167.7,41.4" transform="translate(0 -14.25)"/><path class="cls-4" d="M167.7,41.4c0,8.59-12.83,16.21-32.61,21-13.35,3.21-29.89,5.1-47.79,5.1s-34.43-1.89-47.79-5.1C19.73,57.61,6.91,50,6.91,41.4c0-14.4,36-26.07,80.39-26.07S167.7,27,167.7,41.4Z" transform="translate(0 -14.25)"/><path d="M160.6,41.4c0,10.38-32.82,18.8-73.3,18.8S14,51.78,14,41.4,46.82,22.59,87.3,22.59,160.6,31,160.6,41.4" transform="translate(0 -14.25)"/><ellipse class="cls-4" cx="87.3" cy="27.14" rx="73.3" ry="18.81"/><path class="cls-6" d="M173.52,84.06c0,14.39-38.6,26.06-86.22,26.06S1.08,98.45,1.08,84.06l.3-2.17L6.91,41.4c0,8.59,12.82,16.21,32.6,21,13.36,3.21,29.89,5.1,47.79,5.1s34.44-1.89,47.79-5.1c19.78-4.75,32.61-12.37,32.61-21l5.53,40.49Z" transform="translate(0 -14.25)"/><path class="cls-4" d="M173.52,84.06c0,14.39-38.6,26.06-86.22,26.06S1.08,98.45,1.08,84.06l.3-2.17L6.91,41.4c0,8.59,12.82,16.21,32.6,21,13.36,3.21,29.89,5.1,47.79,5.1s34.44-1.89,47.79-5.1c19.78-4.75,32.61-12.37,32.61-21l5.53,40.49Z" transform="translate(0 -14.25)"/><polygon class="cls-7" points="101.89 70.28 101.89 78.67 91.28 78.67 91.28 89.07 83.32 89.07 83.32 78.67 72.71 78.67 72.71 70.28 83.32 70.28 83.32 59.89 91.28 59.89 91.28 70.28 101.89 70.28"/><polygon class="cls-4" points="101.89 70.28 101.89 78.67 91.28 78.67 91.28 89.07 83.32 89.07 83.32 78.67 72.71 78.67 72.71 70.28 83.32 70.28 83.32 59.89 91.28 59.89 91.28 70.28 101.89 70.28"/></g></g></g></g></g></svg>