<svg version="1" xmlns="http://www.w3.org/2000/svg" width="682.667" height="682.667" viewBox="0 0 512.000000 512.000000"><path d="M206.5 115c-77.6 6.2-137.6 22.3-168.7 45.2-12.9 9.5-19.9 20.2-21.3 32.3-.4 3.3-4.2 32.1-8.6 63.9C3.6 288.2 0 316.8 0 319.9c.1 33.8 70.9 64 175 74.6 29.2 2.9 40.6 3.3 87.5 3.1 48.4-.3 59.5-1 95.3-5.6 70.3-9.2 127-29.6 145.6-52.4 4.3-5.3 8.5-14.6 8.6-18.9 0-1.5-1.1-10.8-2.5-20.5-1.3-9.7-5.1-38-8.5-62.7-3.3-24.8-6.4-47.3-7-50-6.7-32.9-71.6-60.2-168-70.6-16.2-1.8-27.1-2.2-64-2.4-24.5-.2-49.4.1-55.5.5zm281.6 99.3l-2.4 2.2 1.9-2.7c1-1.4 2.1-2.4 2.3-2.2.3.3-.6 1.5-1.8 2.7zM29.5 220c2.7 2.7 4.7 5 4.4 5-.3 0-2.7-2.3-5.4-5-2.7-2.8-4.7-5-4.4-5 .3 0 2.7 2.2 5.4 5zm461.2-.8c-.3.8-.6.5-.6-.6-.1-1.1.2-1.7.5-1.3.3.3.4 1.2.1 1.9zm-5.7-.8c0 .2-.8 1-1.7 1.7-1.6 1.3-1.7 1.2-.4-.4 1.3-1.6 2.1-2.1 2.1-1.3zm-6 4.9c0 .2-1 1.2-2.2 2.3l-2.3 1.9 1.9-2.3c1.8-2.1 2.6-2.7 2.6-1.9zm12.7 3.9c-.3.8-.6.5-.6-.6-.1-1.1.2-1.7.5-1.3.3.3.4 1.2.1 1.9zm-21.7 3.3c0 .2-1 .9-2.2 1.5-2.2 1.1-2.2 1-.4-.4 2.1-1.7 2.6-1.9 2.6-1.1zm24.7 17.7c-.3.8-.6.5-.6-.6-.1-1.1.2-1.7.5-1.3.3.3.4 1.2.1 1.9zm-478 4c-.3.8-.6.5-.6-.6-.1-1.1.2-1.7.5-1.3.3.3.4 1.2.1 1.9zm336 15.4c-.3.3-1.2.4-1.9.1-.8-.3-.5-.6.6-.6 1.1-.1 1.7.2 1.3.5zm-8 1c-.3.3-1.2.4-1.9.1-.8-.3-.5-.6.6-.6 1.1-.1 1.7.2 1.3.5zm-149 3c-.3.3-1.2.4-1.9.1-.8-.3-.5-.6.6-.6 1.1-.1 1.7.2 1.3.5zm122.6.1c-.7.2-1.9.2-2.5 0-.7-.3-.2-.5 1.2-.5s1.9.2 1.3.5zm-108 1c-.7.2-1.9.2-2.5 0-.7-.3-.2-.5 1.2-.5s1.9.2 1.3.5zm94.5 0c-1 .2-2.6.2-3.5 0-1-.3-.2-.5 1.7-.5s2.7.2 1.8.5zm-73.5 1c-1.3.2-3.3.2-4.5 0-1.3-.2-.3-.4 2.2-.4s3.5.2 2.3.4zm53 0c-1.3.2-3.3.2-4.5 0-1.3-.2-.3-.4 2.2-.4s3.5.2 2.3.4zm-271.6 7.5c-.3.8-.6.5-.6-.6-.1-1.1.2-1.7.5-1.3.3.3.4 1.2.1 1.9zm259 27.5c-.1 4.3-.3 1-.3-7.2 0-8.3.2-11.8.3-7.8.2 4 .2 10.7 0 15zm230-8.5c-.3.8-.6.5-.6-.6-.1-1.1.2-1.7.5-1.3.3.3.4 1.2.1 1.9zm-1.7 32.1c0 .2-1.2 1.4-2.7 2.8l-2.8 2.4 2.4-2.8c2.3-2.5 3.1-3.2 3.1-2.4zm-483 5.2c1.9 1.9 3.2 3.5 2.9 3.5-.3 0-2-1.6-3.9-3.5s-3.2-3.5-2.9-3.5c.3 0 2 1.6 3.9 3.5zm476 1.8c0 .2-1 1.2-2.2 2.3l-2.3 1.9 1.9-2.3c1.8-2.1 2.6-2.7 2.6-1.9zm-468.9 4.4c1.3 1.6 1.2 1.7-.3.4-1-.7-1.8-1.5-1.8-1.7 0-.8.8-.3 2.1 1.3zm209.2 5c-4 .2-10.7.2-15 0-4.3-.1-1-.3 7.2-.3 8.3 0 11.8.2 7.8.3zm53.5 0l-14.7.4-.4 14.7-.3 14.7-.2-15.3-.2-15.2 15.3.2 15.2.2-14.7.3zM38 352.6c0 .2-.9 0-2-.6s-2-1.3-2-1.6c0-.2.9 0 2 .6s2 1.3 2 1.6zm127.7 33c-.3.3-1.2.4-1.9.1-.8-.3-.5-.6.6-.6 1.1-.1 1.7.2 1.3.5zm183 0c-.3.3-1.2.4-1.9.1-.8-.3-.5-.6.6-.6 1.1-.1 1.7.2 1.3.5zm-174 1c-.3.3-1.2.4-1.9.1-.8-.3-.5-.6.6-.6 1.1-.1 1.7.2 1.3.5zm165 0c-.3.3-1.2.4-1.9.1-.8-.3-.5-.6.6-.6 1.1-.1 1.7.2 1.3.5zm-154 1c-.3.3-1.2.4-1.9.1-.8-.3-.5-.6.6-.6 1.1-.1 1.7.2 1.3.5zm143 0c-.3.3-1.2.4-1.9.1-.8-.3-.5-.6.6-.6 1.1-.1 1.7.2 1.3.5zm-129.4 1.1c-.7.2-1.9.2-2.5 0-.7-.3-.2-.5 1.2-.5s1.9.2 1.3.5zm115.4-.1c-.3.3-1.2.4-1.9.1-.8-.3-.5-.6.6-.6 1.1-.1 1.7.2 1.3.5zm-96.4 1.1c-.7.2-2.1.2-3 0-1-.3-.4-.5 1.2-.5 1.7 0 2.4.2 1.8.5zm79 0c-.7.2-2.1.2-3 0-1-.3-.4-.5 1.2-.5 1.7 0 2.4.2 1.8.5zm-56.6 1c-2 .2-5.2.2-7 0-1.7-.2 0-.4 3.8-.4 3.9 0 5.3.2 3.2.4zm37 0c-2 .2-5.2.2-7 0-1.7-.2 0-.4 3.8-.4 3.9 0 5.3.2 3.2.4z"/></svg>